<mxfile host="app.diagrams.net" modified="2022-06-11T01:19:42.988Z" agent="5.0 (Windows NT 10.0; Win64; x64) AppleWebKit/537.36 (KHTML, like Gecko) Chrome/102.0.0.0 Safari/537.36" etag="JDac5FS3V3KkktLERrwD" version="19.0.3" type="github">
  <diagram id="IpEnCbm75qUVf8QKrUIa" name="Page-1">
    <mxGraphModel dx="1865" dy="547" grid="1" gridSize="10" guides="1" tooltips="1" connect="1" arrows="1" fold="1" page="1" pageScale="1" pageWidth="827" pageHeight="1169" math="0" shadow="0">
      <root>
        <mxCell id="0" />
        <mxCell id="1" parent="0" />
        <mxCell id="DMAX5aHgx8HFEh-B9LRf-5" value="" style="rounded=0;whiteSpace=wrap;html=1;" parent="1" vertex="1">
          <mxGeometry x="-50" y="210" width="920" height="620" as="geometry" />
        </mxCell>
        <mxCell id="DMAX5aHgx8HFEh-B9LRf-6" value="" style="rounded=1;whiteSpace=wrap;html=1;" parent="1" vertex="1">
          <mxGeometry x="-20" y="230" width="350" height="220" as="geometry" />
        </mxCell>
        <mxCell id="DMAX5aHgx8HFEh-B9LRf-7" value="" style="rounded=1;whiteSpace=wrap;html=1;shadow=1;" parent="1" vertex="1">
          <mxGeometry x="380" y="230" width="196" height="220" as="geometry" />
        </mxCell>
        <mxCell id="DMAX5aHgx8HFEh-B9LRf-8" value="" style="rounded=1;whiteSpace=wrap;html=1;shadow=1;" parent="1" vertex="1">
          <mxGeometry x="660" y="230" width="200" height="220" as="geometry" />
        </mxCell>
        <mxCell id="DMAX5aHgx8HFEh-B9LRf-10" value="userOrder" style="rounded=0;whiteSpace=wrap;html=1;shadow=1;" parent="1" vertex="1">
          <mxGeometry y="260" width="120" height="30" as="geometry" />
        </mxCell>
      </root>
    </mxGraphModel>
  </diagram>
</mxfile>
